inDegrees=no
num_controls=7
num_derivatives=13
num_iterations=105
num_multipliers=7
num_parameters=0
num_slacks=7
num_states=26
objective=0.445693
objective_accelerations=0.057214
objective_balance=0.003494
objective_effort=0.022798
objective_height=0.356640
objective_ligament=0.005546
solver_duration=1469.908596
status=Solve_Succeeded
success=true
DataType=double
version=3
OpenSimVersion=4.5
endheader
time	/jointset/ground_pelvis/pelvis_tilt/value	/jointset/ground_pelvis/pelvis_tx/value	/jointset/ground_pelvis/pelvis_ty/value	/jointset/hip_l/hip_flexion_l/value	/jointset/hip_l/hip_adduction_l/value	/jointset/hip_l/hip_rotation_l/value	/jointset/back/lumbar_extension/value	/jointset/patellofemoral_l/patellar_flexion_l/value	/jointset/knee_l/knee_flexion_l/value	/jointset/knee_l/knee_adduction_l/value	/jointset/knee_l/knee_rotation_l/value	/jointset/ankle_l/ankle_angle_l/value	/jointset/subtalar_l/subtalar_angle_l/value	/jointset/ground_pelvis/pelvis_tilt/speed	/jointset/ground_pelvis/pelvis_tx/speed	/jointset/ground_pelvis/pelvis_ty/speed	/jointset/hip_l/hip_flexion_l/speed	/jointset/hip_l/hip_adduction_l/speed	/jointset/hip_l/hip_rotation_l/speed	/jointset/back/lumbar_extension/speed	/jointset/patellofemoral_l/patellar_flexion_l/speed	/jointset/knee_l/knee_flexion_l/speed	/jointset/knee_l/knee_adduction_l/speed	/jointset/knee_l/knee_rotation_l/speed	/jointset/ankle_l/ankle_angle_l/speed	/jointset/subtalar_l/subtalar_angle_l/speed	/forceset/tau_hip_flexion_l	/forceset/tau_hip_adduction_l	/forceset/tau_hip_rotation_l	/forceset/tau_knee_flexion_l	/forceset/tau_ankle_angle_l	/forceset/tau_subtalar_angle_l	/forceset/tau_lumbar_extension	lambda_cid13_p0	lambda_cid13_p1	lambda_cid13_p2	lambda_cid13_p3	lambda_cid13_p4	lambda_cid13_p5	lambda_cid14_p0	/jointset/ground_pelvis/pelvis_tilt/accel	/jointset/ground_pelvis/pelvis_tx/accel	/jointset/ground_pelvis/pelvis_ty/accel	/jointset/hip_l/hip_flexion_l/accel	/jointset/hip_l/hip_adduction_l/accel	/jointset/hip_l/hip_rotation_l/accel	/jointset/back/lumbar_extension/accel	/jointset/patellofemoral_l/patellar_flexion_l/accel	/jointset/knee_l/knee_flexion_l/accel	/jointset/knee_l/knee_adduction_l/accel	/jointset/knee_l/knee_rotation_l/accel	/jointset/ankle_l/ankle_angle_l/accel	/jointset/subtalar_l/subtalar_angle_l/accel	gamma_cid13_p0	gamma_cid13_p1	gamma_cid13_p2	gamma_cid13_p3	gamma_cid13_p4	gamma_cid13_p5	gamma_cid14_p0
1	-0.5432978137024882	-0.0778156739427189	0.5757684209891605	1.823772137023929	-0.4683590693587628	0.01276062138436939	-0.2617942191106172	1.386377237052107	1.386377237052626	-0.08325557384452242	-0.1745292117651811	0.2277430284696735	-0.006794744848108985	-0.01635435109563778	0.01127770687380962	0.002937427120865645	-0.004059293092767825	-0.002591562788149917	0.003033882036318167	-2.29616609905422e-05	0.001382344761616897	0.001382344761616942	-0.005140407142539898	-9.300093222357607e-05	0.02164526864931907	0.009419597248218784	-0.3310772561036752	0.01583146169326121	0.0001223870715936901	-0.3041859141411987	0.03129209959532751	0.03078581268976163	0.2831591019676436	-29.78167219474091	-8.873900823120081	1.89915653657193	8.292646164663028	-642.0260744778071	-48.3740824414847	-1.376174515179723	1.527500549963591	0.2287381602821588	1.954468829945949	-6.772011083083721	-0.07006334816936048	-2.332398832682236	-0.01978371883799276	-5.296846666707731	-5.296846666707595	-0.6037323148355139	-0.0285805019230043	-0.7312781852509035	-0.4867409639168156	4.77808319402649e-09	1.894535735765231e-08	-1.429416679711235e-08	2.937016478365439e-09	-1.861757815008611e-09	2.519704500254865e-08	2.476603165825541e-09
1.01	-0.5433859156705979	-0.07769151816524331	0.5758953716333092	1.823394249396724	-0.4683874687075365	0.0126731336547378	-0.2617944272600887	1.386126336569336	1.386126336569905	-0.08333436275221004	-0.1745302806265401	0.227923068086448	-0.006723462834645504	-0.001266197831524961	0.01355527486102901	0.02244885402256017	-0.0715090324821836	-0.003084300872909502	-0.02052814679532265	-1.777366914307715e-05	-0.05156189342314868	-0.05156189342314848	-0.0106170417037468	-0.0001186798053689894	0.01435462524147975	0.004836863690685867	-0.3309878418123893	0.01594061080727718	0.0001052000389231629	-0.3040144183269134	0.03110009491574597	0.03080785520688881	0.2830922222603527	-29.83042469804191	-8.879082818020644	1.904717425484546	8.243169308918135	-641.8847853395168	-48.38683274676521	-1.381339402056861	1.499448194974745	0.2275407933570973	1.948900000371067	-6.73007685782614	-0.03827898438153691	-2.367618646046432	0.01080424279925386	-5.293128215333433	-5.29312821533349	-0.5195826428700564	0.01076021973866407	-0.7291613453239836	-0.4440355833619234	-3.826297455829877e-09	9.190062854036498e-09	2.794946549236808e-08	3.689788566030812e-09	-1.223010968063872e-08	7.447162601897867e-08	-9.851284795517589e-09
1.02	-0.5433231410099985	-0.07754453177281247	0.5762173206224929	1.822342140077436	-0.4684206754263079	0.01235012288926087	-0.2617945566927217	1.385346010540522	1.385346010541141	-0.08346790872873176	-0.1745315419166568	0.2280299604837895	-0.006698007363095389	0.01382097464617243	0.01584382986486072	0.04193709612784947	-0.1389036315098246	-0.003553036787760194	-0.0440707251326205	-7.218293170332746e-06	-0.1045027644468133	-0.1045027644468135	-0.01609182090922494	-0.0001314866885548942	0.007015824762698767	0.0002542888655374575	-0.3308984275210987	0.01604975992129409	8.801300627427934e-05	-0.3038429225126283	0.03090809023616382	0.0308298977240165	0.2830253425530666	-29.88527693473159	-8.883081214391213	1.909957615837514	8.218162300430283	-641.8284187268928	-48.37777265194047	-1.396893141194155	1.527304392680507	0.2309355636046147	1.949831870664907	-6.760983010728753	-0.06526291418754161	-2.328508733813601	-0.01871024201294757	-5.296173234487553	-5.296173234487536	-0.6033612436897464	-0.02600610393102447	-0.7409095994392432	-0.4867092174398662	-1.153876230440763e-08	1.901907837814901e-09	7.092427892968036e-08	5.208684602156416e-09	-2.203429232579492e-08	1.220679794033255e-07	-2.13654232412094e-08
1.03	-0.5431094630342599	-0.07737457517818266	0.5767339621882801	1.820616512475834	-0.4684582993040547	0.01179195988248209	-0.261794572930257	1.384036377387123	1.384036377387145	-0.08365612778912672	-0.1745326808603252	0.2280631722328768	-0.006718210270804271	0.02891738162199975	0.01815219121088147	0.06137998961863834	-0.206196821022512	-0.003951741193269821	-0.06754044391722112	3.687718429975211e-06	-0.1574151127520244	-0.1574151127520247	-0.02154412729473128	-7.376558000014466e-05	-0.0003864921381780291	-0.004276851081104091	-0.3304994005379205	0.01622177826293488	3.944215375386235e-05	-0.3035480797221275	0.03082617452284069	0.03091157900474633	0.2827446036752432	-29.88453321109475	-8.930663551141521	1.931225212105335	8.112687494884835	-641.4704998837118	-48.4285072398202	-1.423047803613732	1.50121961173304	0.2314930988885816	1.939827550716959	-6.709730788342441	-0.02418491756807096	-2.353008993797726	0.01094856256934624	-5.287445962437382	-5.287445962437415	-0.5149976213900429	0.02507047481568293	-0.7418449454701039	-0.4336260689483976	-1.924212597133967e-08	-5.361072285678169e-09	1.139065533991134e-07	6.735398229592842e-09	-3.183271814217078e-08	1.696472080159164e-07	-3.287125812041497e-08
